<svg xmlns="http://www.w3.org/2000/svg" width="512" height="512" viewBox="0 0 512 512" style="overflow: visible;"><rect data-uid="o_f7bik9hgl_4" data-fl-background="" x="0" y="0" width="512" height="512" fill="#ae5d4d"></rect><path text-anchor="middle" offset="0.5" fill="#ffffff" space="preserve" font-scale="contain" font-size="48" font-family="Atomic Age" text="hytorium" font-style="normal" font-weight="400" data-fl-textpath="" transform="matrix(2.060633962853443, 0, 0, 2.060633962853443, 251.6788503283541, 282.2009611521093)" data-uid="o_f7bik9hgl_24" d="M-107.496 0L-107.496-37.27L-101.896-37.27L-101.896-21.87Q-101.236-23.13 -100.266-23.84Q-99.296-24.54 -98.146-24.54L-98.146-24.54L-91.086-24.54Q-90.176-24.54 -89.366-24.07Q-88.556-23.6 -87.946-22.79Q-87.336-21.98 -86.986-20.91Q-86.636-19.83 -86.636-18.59L-86.636-18.59L-86.636-4.01L-81.616-4.01Q-81.716-3.19 -82.076-2.45Q-82.446-1.71 -82.976-1.17Q-83.516-0.63 -84.226-0.32Q-84.926 0 -85.676 0L-85.676 0L-87.766 0Q-88.676 0 -89.496-0.47Q-90.316-0.94 -90.926-1.75Q-91.536-2.55 -91.886-3.63Q-92.236-4.71 -92.236-5.95L-92.236-5.95L-92.236-20.53L-101.896-20.53L-101.896 0L-107.496 0ZM-77.613-5.95L-77.613-24.54L-72.013-24.54L-72.013-4.01L-62.353-4.01L-62.353-24.54L-56.753-24.54L-56.753-4.01L-52.023-4.01Q-52.113-3.19 -52.473-2.45Q-52.843-1.71 -53.393-1.17Q-53.943-0.63 -54.643-0.32Q-55.343 0 -56.123 0L-56.123 0L-56.753 0L-56.753 6.68Q-56.753 7.92 -57.103 9.01Q-57.453 10.1 -58.063 10.91Q-58.673 11.72 -59.483 12.2Q-60.293 12.68 -61.203 12.68L-61.203 12.68L-72.553 12.68L-72.553 8.63L-62.353 8.63L-62.353-2.51Q-62.983-1.34 -63.983-0.67Q-64.983 0 -66.103 0L-66.103 0L-73.163 0Q-74.073 0 -74.893-0.47Q-75.713-0.94 -76.313-1.75Q-76.913-2.55 -77.263-3.63Q-77.613-4.71 -77.613-5.95L-77.613-5.95ZM-47.03-5.95L-47.03-20.93L-48.9-20.93L-48.9-24.54L-47.03-24.54L-47.03-31.05L-41.43-33.84L-41.43-24.54L-35.12-24.54L-35.12-20.93L-41.43-20.93L-41.43-4.01L-33.03-4.01Q-33.13-3.19 -33.49-2.45Q-33.85-1.71 -34.42-1.17Q-34.98-0.63 -35.68-0.32Q-36.39 0 -37.16 0L-37.16 0L-42.57 0Q-43.49 0 -44.31-0.47Q-45.13-0.94 -45.73-1.75Q-46.32-2.55 -46.68-3.63Q-47.03-4.71 -47.03-5.95L-47.03-5.95ZM-29.801-5.91L-29.801-18.59Q-29.801-19.83 -29.451-20.92Q-29.101-22.01 -28.501-22.82Q-27.901-23.63 -27.101-24.08Q-26.311-24.54 -25.391-24.54L-25.391-24.54L-5.751-24.54Q-5.851-23.72 -6.211-22.98Q-6.571-22.24 -7.121-21.7Q-7.671-21.16 -8.381-20.85Q-9.081-20.53 -9.851-20.53L-9.851-20.53L-11.331-20.53Q-10.891-20.2 -10.451-19.69Q-10.021-19.17 -9.681-18.49Q-9.341-17.81 -9.141-17Q-8.941-16.2 -8.941-15.26L-8.941-15.26L-8.941-5.91Q-8.941-4.69 -9.291-3.61Q-9.641-2.53 -10.251-1.73Q-10.861-0.94 -11.671-0.47Q-12.481 0 -13.391 0L-13.391 0L-25.391 0Q-26.311 0 -27.101-0.47Q-27.901-0.94 -28.501-1.73Q-29.101-2.53 -29.451-3.61Q-29.801-4.69 -29.801-5.91L-29.801-5.91ZM-24.201-4.01L-14.541-4.01L-14.541-20.53L-24.201-20.53L-24.201-4.01ZM 0.082 0L 0.082-27.12L 5.712-27.12L 5.712-24.54L 23.382-24.54Q 23.282-23.72  22.922-22.98Q 22.562-22.24  22.022-21.7Q 21.482-21.16  20.792-20.85Q 20.102-20.53  19.372-20.53L 19.372-20.53L 19.372-4.01L 24.812-4.01Q 24.712-3.19  24.352-2.45Q 23.992-1.71  23.422-1.17Q 22.862-0.63  22.132-0.32Q 21.412 0  20.592 0L 20.592 0L 18.242 0Q 17.332 0  16.512-0.47Q 15.692-0.94  15.082-1.75Q 14.472-2.55  14.122-3.63Q 13.772-4.71  13.772-5.95L 13.772-5.95L 13.772-20.53L 5.662-20.53L 5.662 0L 0.082 0ZM 32.425-30.21L 32.425-30.21Q 31.605-30.21  30.895-30.52Q 30.175-30.82  29.635-31.36Q 29.095-31.9  28.795-32.61Q 28.485-33.33  28.485-34.15L 28.485-34.15Q 28.485-34.97  28.795-35.68Q 29.095-36.4  29.635-36.94Q 30.175-37.48  30.895-37.79Q 31.605-38.11  32.425-38.11L 32.425-38.11Q 33.245-38.11  33.965-37.79Q 34.675-37.48  35.215-36.94Q 35.755-36.4  36.075-35.68Q 36.385-34.97  36.385-34.15L 36.385-34.15Q 36.385-33.33  36.075-32.61Q 35.755-31.9  35.215-31.36Q 34.675-30.82  33.945-30.52Q 33.225-30.21  32.425-30.21ZM 29.685-5.95L 29.685-24.54L 35.285-24.54L 35.285-4.01L 40.305-4.01Q 40.235-3.19  39.865-2.45Q 39.505-1.71  38.955-1.17Q 38.405-0.63  37.695-0.32Q 36.995 0  36.225 0L 36.225 0L 34.165 0Q 33.245 0  32.425-0.47Q 31.605-0.94  30.995-1.75Q 30.385-2.55  30.035-3.63Q 29.685-4.71  29.685-5.95L 29.685-5.95ZM 44.029-5.95L 44.029-24.54L 49.629-24.54L 49.629-4.01L 59.309-4.01L 59.309-24.54L 64.889-24.54L 64.889-4.01L 69.649-4.01Q 69.549-3.19  69.189-2.45Q 68.829-1.71  68.269-1.17Q 67.719-0.63  67.019-0.32Q 66.319 0  65.539 0L 65.539 0L 61.139 0L 59.309-2.98Q 59.049-2.32  58.649-1.77Q 58.259-1.22  57.749-0.83Q 57.249-0.45  56.699-0.22Q 56.149 0  55.629 0L 55.629 0L 48.479 0Q 47.569 0  46.749-0.47Q 45.929-0.94  45.329-1.75Q 44.729-2.55  44.379-3.63Q 44.029-4.71  44.029-5.95L 44.029-5.95ZM 74.57 0L 74.57-24.54L 80.17-24.54L 80.17-15.12L 85.86-22.76Q 86.61-23.65  87.42-24.11Q 88.23-24.56  89.4-24.56L 89.4-24.56Q 90.34-24.56  91.2-24.09Q 92.05-23.63  92.7-22.82Q 93.34-22.01  93.73-20.93Q 94.11-19.85  94.11-18.61L 94.11-18.61L 94.11-15.96L 99.04-22.76Q 99.79-23.63  100.72-24.09Q 101.66-24.56  102.81-24.56L 102.81-24.56Q 103.75-24.56  104.6-24.09Q 105.46-23.63  106.1-22.82Q 106.75-22.01  107.13-20.93Q 107.52-19.85  107.52-18.61L 107.52-18.61L 107.52-4.01L 111.69-4.01Q 111.6-3.19  111.23-2.45Q 110.87-1.71  110.32-1.17Q 109.77-0.63  109.07-0.32Q 108.36 0  107.59 0L 107.59 0L 106.32 0Q 105.41 0  104.6-0.47Q 103.79-0.94  103.21-1.75Q 102.62-2.55  102.28-3.63Q 101.94-4.71  101.94-5.95L 101.94-5.95L 101.94-20.04L 94.11-10.55L 94.11 0L 88.51 0L 88.51-20.04L 80.17-9.73L 80.17 0L 74.57 0Z"></path></svg>