<svg xmlns="http://www.w3.org/2000/svg" width="512" height="205.64" viewBox="0 0 512 205.64" style="overflow: visible;" data-bbox="0 36.276970498740226 512 439.4460590025195"><g data-icon="" transform="matrix(0.4016393758924208, 0, 0, 0.4016393758924208, 8.470329472543003e-22, 0)" data-uid="o_f7dg9j7if_4"><path d="m117.658 260.393c-5.755-8.489-9.765-18.256-11.516-28.787-1.047-6.3 3.842-12.028 10.228-12.028 6.567 0 11.462-6.029 10.137-12.461-2.068-10.045-2.036-20.603.377-31.003 1.443-6.221 8.152-9.642 14.052-7.198 6.067 2.513 12.896-1.184 14.134-7.633 1.933-10.072 6.003-19.814 12.212-28.498 3.714-5.195 11.221-5.789 15.737-1.273 4.643 4.643 12.368 3.841 15.979-1.643 5.64-8.565 13.129-16.008 22.189-21.656 5.42-3.378 12.583-1.054 15.027 4.847 2.513 6.067 9.956 8.282 15.392 4.597 8.489-5.755 18.256-9.765 28.787-11.516 6.3-1.047 12.028 3.842 12.028 10.228 0 6.567 6.029 11.462 12.461 10.137 10.045-2.068 20.603-2.036 31.003.377 6.221 1.443 9.642 8.152 7.198 14.052-2.513 6.067 1.184 12.896 7.633 14.134 10.072 1.933 19.814 6.003 28.498 12.212 5.195 3.714 5.789 11.221 1.273 15.737-4.643 4.643-3.841 12.368 1.643 15.979 8.565 5.64 16.008 13.129 21.656 22.189 3.378 5.42 1.054 12.583-4.847 15.027-6.067 2.513-8.282 9.956-4.597 15.392 5.755 8.489 9.765 18.256 11.516 28.787 1.047 6.3-3.842 12.028-10.228 12.028-6.567 0-11.462 6.029-10.137 12.461 2.068 10.045 2.036 20.603-.377 31.003-1.443 6.221-8.152 9.642-14.052 7.198-6.067-2.513-12.896 1.184-14.134 7.633-1.933 10.072-6.003 19.814-12.212 28.498-3.714 5.195-11.221 5.789-15.737 1.273-4.643-4.643-12.368-3.841-15.979 1.643-5.64 8.565-13.129 16.008-22.189 21.656-5.42 3.378-12.583 1.054-15.027-4.847-2.513-6.067-9.956-8.282-15.392-4.597-8.489 5.755-18.256 9.765-28.787 11.516-6.3 1.047-12.028-3.842-12.028-10.228 0-6.567-6.029-11.462-12.461-10.137-10.045 2.068-20.603 2.036-31.003-.377-6.221-1.443-9.642-8.152-7.198-14.052 2.513-6.067-1.184-12.896-7.633-14.134-10.072-1.933-19.814-6.003-28.498-12.212-5.195-3.714-5.789-11.221-1.273-15.737 4.643-4.643 3.841-12.368-1.643-15.979-8.565-5.64-16.008-13.129-21.656-22.189-3.378-5.42-1.054-12.583 4.847-15.027 6.066-2.513 8.282-9.956 4.597-15.392z" fill="#ff8870" data-uid="o_f7dg9j7if_5"/><path fill="#ffe45c" data-type="circle" data-cx="256" data-cy="256" data-r="105.634" d="M256,256m-105.634,0a105.634,105.634 0 1, 0 211.268,0a105.634,105.634 0 1, 0 -211.268,0" data-uid="o_f7dg9j7if_6"/><path d="m296 321.634c-58.34 0-105.634-47.294-105.634-105.634 0-18.896 4.966-36.63 13.658-51.976-32.035 18.142-53.658 52.532-53.658 91.976 0 58.34 47.294 105.634 105.634 105.634 39.444 0 73.834-21.622 91.976-53.658-15.346 8.691-33.08 13.658-51.976 13.658z" fill="#ffda45" data-uid="o_f7dg9j7if_7"/><path fill="#f2f6fc" transform="matrix(0.0020000000949949026, -1, 1, 0.0020000000949949026, -69.93900299072266, 446.64898681640625)" data-cx="188.845" data-cy="258.37" data-rx="19.733" data-ry="24.779" d="M169.112 258.37 C169.112 244.6849361847058 177.9467650321966 233.591 188.845 233.591 C199.7432349678034 233.591 208.578 244.6849361847058 208.578 258.37 C208.578 272.0550638152942 199.7432349678034 283.149 188.845 283.149 C177.9467650321966 283.149 169.112 272.0550638152942 169.112 258.37 Z" data-uid="o_f7dg9j7if_8"/><path fill="#f2f6fc" transform="matrix(0.0020000000949949026, -1, 1, 0.0020000000949949026, 63.784000396728516, 581.2529907226562)" data-cx="323.155" data-cy="258.664" data-rx="19.733" data-ry="24.779" d="M303.42199999999997 258.664 C303.42199999999997 244.9789361847058 312.2567650321966 233.885 323.155 233.885 C334.05323496780335 233.885 342.888 244.9789361847058 342.888 258.664 C342.888 272.3490638152942 334.05323496780335 283.443 323.155 283.443 C312.2567650321966 283.443 303.42199999999997 272.3490638152942 303.42199999999997 258.664 Z" data-uid="o_f7dg9j7if_9"/><path d="m203.524 251.173c-4.142 0-7.5-3.358-7.5-7.5v-10.07c0-4.142 3.358-7.5 7.5-7.5s7.5 3.358 7.5 7.5v10.07c0 4.142-3.358 7.5-7.5 7.5z" data-uid="o_f7dg9j7if_10"/><path d="m308.331 251.173c-4.142 0-7.5-3.358-7.5-7.5v-10.07c0-4.142 3.358-7.5 7.5-7.5s7.5 3.358 7.5 7.5v10.07c0 4.142-3.358 7.5-7.5 7.5z" data-uid="o_f7dg9j7if_11"/><path d="m280.341 242.177c-4.142 0-7.5 3.358-7.5 7.5 0 2.553-2.077 4.63-4.63 4.63s-4.63-2.077-4.63-4.63c0-4.142-3.358-7.5-7.5-7.5s-7.5 3.358-7.5 7.5c0 2.553-2.077 4.63-4.63 4.63s-4.63-2.077-4.63-4.63c0-4.142-3.358-7.5-7.5-7.5s-7.5 3.358-7.5 7.5c0 10.824 8.806 19.63 19.63 19.63 4.579 0 8.787-1.589 12.13-4.227 3.343 2.638 7.551 4.227 12.13 4.227 10.824 0 19.63-8.806 19.63-19.63 0-4.142-3.358-7.5-7.5-7.5z" data-uid="o_f7dg9j7if_12"/><path fill="#87c7ff" data-type="circle" data-cx="431.716" data-cy="80.284" data-r="20" d="M431.716,80.284m-20,0a20,20 0 1, 0 40,0a20,20 0 1, 0 -40,0" data-uid="o_f7dg9j7if_13"/><path fill="#cdc3b4" data-type="circle" data-cx="256" data-cy="456" data-r="20" d="M256,456m-20,0a20,20 0 1, 0 40,0a20,20 0 1, 0 -40,0" data-uid="o_f7dg9j7if_14"/><path d="m305.623 457.296c.614 0 1.238-.076 1.861-.235 42.05-10.737 79.143-34.056 107.268-67.436 28.451-33.768 45.128-74.857 48.228-118.828.292-4.132-2.822-7.717-6.954-8.009-4.125-.284-7.717 2.823-8.009 6.954-5.838 82.81-63.805 152.246-144.244 172.784-4.013 1.025-6.436 5.109-5.412 9.123.867 3.392 3.916 5.647 7.262 5.647z" data-uid="o_f7dg9j7if_15"/><path d="m256 48.5c-114.416 0-207.5 93.084-207.5 207.5 0 94.739 63.998 177.378 155.63 200.962.627.162 1.256.239 1.875.239 3.34 0 6.387-2.248 7.258-5.632 1.033-4.012-1.382-8.101-5.394-9.133-85.002-21.878-144.369-98.543-144.369-186.436 0-106.145 86.355-192.5 192.5-192.5 100.742 0 185.094 78.634 192.036 179.017.286 4.132 3.859 7.25 8 6.964 4.132-.286 7.25-3.867 6.964-8-3.618-52.322-26.756-100.95-65.151-136.927-38.578-36.147-88.955-56.054-141.849-56.054z" data-uid="o_f7dg9j7if_16"/><path d="m15 256c0-132.888 108.112-241 241-241 47.489 0 93.429 13.795 132.854 39.893 3.455 2.286 8.108 1.34 10.394-2.114 2.287-3.454 1.34-8.107-2.114-10.394-41.888-27.728-90.691-42.385-141.134-42.385-68.38 0-132.667 26.629-181.019 74.98-48.353 48.353-74.981 112.64-74.981 181.02 0 61.955 22.422 121.742 63.135 168.347 1.483 1.698 3.562 2.566 5.651 2.566 1.75 0 3.509-.609 4.931-1.852 3.12-2.725 3.439-7.463.714-10.583-38.325-43.871-59.431-100.153-59.431-158.478z" data-uid="o_f7dg9j7if_17"/><path d="m469.612 114.862c-2.287-3.454-6.94-4.399-10.394-2.114-3.454 2.287-4.4 6.94-2.114 10.394 26.101 39.425 39.896 85.367 39.896 132.858 0 132.888-108.112 241-241 241-60.075 0-117.622-22.234-162.042-62.606-3.066-2.786-7.809-2.559-10.595.506s-2.56 7.809.506 10.595c47.187 42.886 108.317 66.505 172.131 66.505 68.38 0 132.667-26.629 181.02-74.98 48.351-48.353 74.98-112.64 74.98-181.02 0-50.445-14.657-99.25-42.388-141.138z" data-uid="o_f7dg9j7if_18"/><path d="m294.779 410.151c9.848-6.139 18.085-14.178 24.485-23.896.772-1.172 1.943-1.299 2.411-1.299.532 0 1.312.145 2.001.834 3.377 3.377 7.864 5.237 12.636 5.236 5.749 0 11.171-2.786 14.506-7.45 6.749-9.439 11.283-20.02 13.477-31.447.295-1.537 1.636-2.34 2.809-2.34.366 0 .732.075 1.09.223 2.187.906 4.487 1.365 6.837 1.365 8.355 0 15.506-5.674 17.391-13.797 2.623-11.304 2.764-22.813.417-34.21-.241-1.169.264-2.006.585-2.401.319-.391 1.029-1.047 2.207-1.047 5.263 0 10.234-2.304 13.638-6.32 3.394-4.005 4.848-9.267 3.989-14.438-1.903-11.448-6.178-22.135-12.707-31.765-.67-.988-.525-1.955-.378-2.443.145-.483.55-1.361 1.638-1.812 4.862-2.014 8.574-6.045 10.181-11.059 1.603-4.999.932-10.417-1.84-14.864-6.139-9.848-14.178-18.085-23.896-24.485-.997-.656-1.232-1.604-1.284-2.111-.051-.502-.013-1.468.82-2.301 3.722-3.722 5.608-8.865 5.175-14.113-.432-5.231-3.125-9.98-7.389-13.029-9.439-6.749-20.02-11.283-31.447-13.477-1.172-.225-1.753-1.011-1.995-1.46-.239-.444-.573-1.351-.123-2.438 2.014-4.863 1.788-10.337-.621-15.02-2.401-4.667-6.706-8.024-11.812-9.208-11.186-2.596-22.94-2.737-34.21-.417-.204.042-.408.063-.606.063-1.367 0-2.842-1.091-2.842-2.855 0-9.854-7.994-17.87-17.821-17.87-.978 0-1.966.082-2.938.243-11.448 1.903-22.135 6.178-31.765 12.707-.492.333-1.031.502-1.604.502-.886 0-2.112-.461-2.651-1.762-2.777-6.705-9.263-11.038-16.523-11.038-3.319 0-6.57.933-9.4 2.697-9.848 6.139-18.085 14.178-24.485 23.896-.772 1.172-1.943 1.299-2.411 1.299-.532 0-1.312-.145-2.001-.834-3.376-3.377-7.864-5.236-12.636-5.236-5.749 0-11.171 2.785-14.506 7.45-6.749 9.439-11.283 20.02-13.477 31.447-.295 1.537-1.636 2.34-2.809 2.34-.366 0-.732-.075-1.09-.223-2.187-.906-4.487-1.365-6.837-1.365-8.355 0-15.506 5.673-17.391 13.797-2.623 11.304-2.764 22.813-.417 34.21.241 1.169-.264 2.006-.585 2.401-.319.391-1.029 1.047-2.207 1.047-5.263 0-10.234 2.304-13.638 6.32-3.394 4.005-4.848 9.267-3.989 14.438 1.903 11.448 6.178 22.135 12.707 31.765.67.988.525 1.955.378 2.443-.145.483-.55 1.361-1.638 1.812-4.862 2.014-8.574 6.045-10.181 11.059-1.603 4.999-.932 10.417 1.84 14.864 6.139 9.848 14.178 18.085 23.896 24.485.997.656 1.232 1.604 1.284 2.111.051.502.013 1.468-.82 2.301-3.722 3.722-5.608 8.865-5.175 14.113.432 5.231 3.125 9.98 7.389 13.029 9.439 6.749 20.02 11.283 31.447 13.477 1.172.225 1.753 1.011 1.995 1.46.239.444.573 1.351.123 2.438-2.014 4.863-1.788 10.337.621 15.02 2.401 4.667 6.706 8.024 11.812 9.208 11.187 2.596 22.941 2.737 34.21.417.204-.042.408-.063.606-.063 1.367 0 2.842 1.091 2.842 2.855 0 4.8 1.875 9.305 5.28 12.685 3.37 3.344 7.824 5.186 12.542 5.185.978 0 1.966-.082 2.937-.243 11.448-1.903 22.135-6.178 31.765-12.707.492-.333 1.031-.502 1.604-.502.886 0 2.112.461 2.651 1.762 2.777 6.705 9.264 11.038 16.523 11.038 3.32 0 6.57-.933 9.4-2.697zm-12.065-14.081c-2.773-6.695-9.253-11.022-16.509-11.022-3.578 0-7.042 1.067-10.021 3.086-7.827 5.306-16.51 8.78-25.808 10.326-.161.026-.322.04-.479.04-.987 0-1.66-.521-1.973-.832-.386-.383-.847-1.048-.847-2.039 0-9.845-8.004-17.854-17.842-17.854-1.212 0-2.434.125-3.631.371-9.16 1.886-18.706 1.772-27.796-.337-1.1-.255-1.639-1.023-1.863-1.458-.228-.443-.544-1.347-.101-2.418 2.062-4.978 1.779-10.552-.776-15.294-2.56-4.75-7.069-8.058-12.372-9.076-9.287-1.783-17.883-5.467-25.551-10.948-.918-.657-1.123-1.573-1.164-2.061-.041-.497.013-1.453.833-2.272 3.81-3.811 5.681-9.069 5.135-14.428-.547-5.368-3.447-10.149-7.957-13.119-7.897-5.201-14.43-11.894-19.416-19.892-.597-.958-.436-1.883-.287-2.349.152-.475.568-1.338 1.638-1.781 4.978-2.062 8.72-6.203 10.267-11.363 1.549-5.168.699-10.696-2.331-15.166-5.306-7.827-8.78-16.51-10.326-25.808-.185-1.114.318-1.907.635-2.28.322-.38 1.036-1.019 2.195-1.019 5.388 0 10.43-2.395 13.833-6.57 3.409-4.182 4.739-9.614 3.65-14.903-1.907-9.263-1.794-18.614.337-27.796.349-1.502 1.685-2.187 2.779-2.187.371 0 .74.075 1.097.223 2.187.906 4.484 1.365 6.83 1.365 8.549 0 15.926-6.104 17.54-14.513 1.783-9.287 5.467-17.883 10.948-25.551.757-1.059 1.864-1.173 2.304-1.173.542 0 1.333.146 2.029.843 3.372 3.371 7.849 5.228 12.608 5.228 6.035 0 11.62-3.009 14.938-8.049 5.201-7.897 11.894-14.43 19.892-19.416.454-.283.947-.426 1.465-.426.89 0 2.122.466 2.665 1.778 2.773 6.695 9.253 11.022 16.509 11.022 3.578 0 7.042-1.067 10.021-3.086 7.827-5.306 16.51-8.78 25.808-10.326.161-.026.321-.04.478-.04 1.362 0 2.821 1.153 2.821 2.87 0 9.845 8.004 17.855 17.842 17.855 1.212 0 2.434-.125 3.631-.372 9.16-1.886 18.706-1.772 27.795.337 1.1.255 1.639 1.023 1.863 1.458.228.443.544 1.347.101 2.418-2.062 4.978-1.779 10.552.776 15.294 2.56 4.75 7.069 8.058 12.372 9.076 9.287 1.783 17.883 5.467 25.551 10.948.918.657 1.123 1.573 1.164 2.061.041.497-.013 1.453-.833 2.272-3.81 3.811-5.681 9.069-5.135 14.428.547 5.368 3.447 10.149 7.957 13.119 7.897 5.201 14.43 11.894 19.416 19.892.597.958.436 1.883.287 2.349-.152.475-.568 1.338-1.638 1.781-4.978 2.062-8.72 6.203-10.267 11.363-1.549 5.168-.699 10.696 2.331 15.166 5.306 7.827 8.78 16.51 10.326 25.808.185 1.114-.318 1.907-.635 2.28-.322.38-1.036 1.019-2.195 1.019-5.388 0-10.43 2.395-13.833 6.57-3.409 4.182-4.739 9.614-3.65 14.903 1.907 9.263 1.794 18.614-.337 27.796-.349 1.502-1.685 2.187-2.779 2.187-.37 0-.739-.075-1.097-.223-2.187-.906-4.484-1.365-6.83-1.365-8.549 0-15.926 6.104-17.54 14.513-1.783 9.287-5.467 17.883-10.948 25.551-.757 1.059-1.864 1.173-2.305 1.173-.541 0-1.332-.146-2.028-.843-3.372-3.371-7.849-5.228-12.608-5.228-6.035 0-11.62 3.009-14.938 8.049-5.201 7.897-11.894 14.43-19.892 19.416-.454.283-.947.426-1.465.426-.889.001-2.121-.465-2.664-1.777z" data-uid="o_f7dg9j7if_19"/><path d="m369.134 256c0-62.382-50.751-113.134-113.134-113.134s-113.134 50.752-113.134 113.134 50.752 113.134 113.134 113.134 113.134-50.752 113.134-113.134zm-113.134 98.134c-54.111 0-98.134-44.022-98.134-98.134s44.022-98.134 98.134-98.134 98.134 44.022 98.134 98.134-44.023 98.134-98.134 98.134z" data-uid="o_f7dg9j7if_20"/><path d="m431.716 107.784c7.346 0 14.252-2.86 19.446-8.055 10.722-10.722 10.722-28.169 0-38.891-5.194-5.194-12.1-8.054-19.446-8.054-7.345 0-14.251 2.86-19.445 8.054s-8.055 12.1-8.055 19.446c0 7.345 2.86 14.251 8.055 19.445 5.193 5.195 12.1 8.055 19.445 8.055zm-8.839-36.339c2.361-2.361 5.5-3.661 8.839-3.661s6.479 1.3 8.839 3.661c4.874 4.874 4.874 12.804 0 17.678-2.361 2.361-5.5 3.661-8.839 3.661s-6.478-1.3-8.839-3.661c-4.874-4.874-4.874-12.804 0-17.678z" data-uid="o_f7dg9j7if_21"/><path d="m228.5 456c0 15.164 12.336 27.5 27.5 27.5s27.5-12.336 27.5-27.5-12.336-27.5-27.5-27.5-27.5 12.336-27.5 27.5zm40 0c0 6.893-5.607 12.5-12.5 12.5s-12.5-5.607-12.5-12.5 5.607-12.5 12.5-12.5 12.5 5.607 12.5 12.5z" data-uid="o_f7dg9j7if_22"/></g><path text-anchor="middle" offset="0.5" fill="#000000" space="preserve" font-scale="contain" font-size="48" font-family="Atomic Age" text="hytorium" font-style="normal" font-weight="400" data-fl-textpath="" transform="matrix(1.3275148569604016, 0, 0, 1.327514838736544, 363.7298623850897, 119.6990323716239)" data-uid="o_f7dg9j7if_23" d="M-107.496 0L-107.496-37.27L-101.896-37.27L-101.896-21.87Q-101.236-23.13 -100.266-23.84Q-99.296-24.54 -98.146-24.54L-98.146-24.54L-91.086-24.54Q-90.176-24.54 -89.366-24.07Q-88.556-23.6 -87.946-22.79Q-87.336-21.98 -86.986-20.91Q-86.636-19.83 -86.636-18.59L-86.636-18.59L-86.636-4.01L-81.616-4.01Q-81.716-3.19 -82.076-2.45Q-82.446-1.71 -82.976-1.17Q-83.516-0.63 -84.226-0.32Q-84.926 0 -85.676 0L-85.676 0L-87.766 0Q-88.676 0 -89.496-0.47Q-90.316-0.94 -90.926-1.75Q-91.536-2.55 -91.886-3.63Q-92.236-4.71 -92.236-5.95L-92.236-5.95L-92.236-20.53L-101.896-20.53L-101.896 0L-107.496 0ZM-77.613-5.95L-77.613-24.54L-72.013-24.54L-72.013-4.01L-62.353-4.01L-62.353-24.54L-56.753-24.54L-56.753-4.01L-52.023-4.01Q-52.113-3.19 -52.473-2.45Q-52.843-1.71 -53.393-1.17Q-53.943-0.63 -54.643-0.32Q-55.343 0 -56.123 0L-56.123 0L-56.753 0L-56.753 6.68Q-56.753 7.92 -57.103 9.01Q-57.453 10.1 -58.063 10.91Q-58.673 11.72 -59.483 12.2Q-60.293 12.68 -61.203 12.68L-61.203 12.68L-72.553 12.68L-72.553 8.63L-62.353 8.63L-62.353-2.51Q-62.983-1.34 -63.983-0.67Q-64.983 0 -66.103 0L-66.103 0L-73.163 0Q-74.073 0 -74.893-0.47Q-75.713-0.94 -76.313-1.75Q-76.913-2.55 -77.263-3.63Q-77.613-4.71 -77.613-5.95L-77.613-5.95ZM-47.03-5.95L-47.03-20.93L-48.9-20.93L-48.9-24.54L-47.03-24.54L-47.03-31.05L-41.43-33.84L-41.43-24.54L-35.12-24.54L-35.12-20.93L-41.43-20.93L-41.43-4.01L-33.03-4.01Q-33.13-3.19 -33.49-2.45Q-33.85-1.71 -34.42-1.17Q-34.98-0.63 -35.68-0.32Q-36.39 0 -37.16 0L-37.16 0L-42.57 0Q-43.49 0 -44.31-0.47Q-45.13-0.94 -45.73-1.75Q-46.32-2.55 -46.68-3.63Q-47.03-4.71 -47.03-5.95L-47.03-5.95ZM-29.801-5.91L-29.801-18.59Q-29.801-19.83 -29.451-20.92Q-29.101-22.01 -28.501-22.82Q-27.901-23.63 -27.101-24.08Q-26.311-24.54 -25.391-24.54L-25.391-24.54L-5.751-24.54Q-5.851-23.72 -6.211-22.98Q-6.571-22.24 -7.121-21.7Q-7.671-21.16 -8.381-20.85Q-9.081-20.53 -9.851-20.53L-9.851-20.53L-11.331-20.53Q-10.891-20.2 -10.451-19.69Q-10.021-19.17 -9.681-18.49Q-9.341-17.81 -9.141-17Q-8.941-16.2 -8.941-15.26L-8.941-15.26L-8.941-5.91Q-8.941-4.69 -9.291-3.61Q-9.641-2.53 -10.251-1.73Q-10.861-0.94 -11.671-0.47Q-12.481 0 -13.391 0L-13.391 0L-25.391 0Q-26.311 0 -27.101-0.47Q-27.901-0.94 -28.501-1.73Q-29.101-2.53 -29.451-3.61Q-29.801-4.69 -29.801-5.91L-29.801-5.91ZM-24.201-4.01L-14.541-4.01L-14.541-20.53L-24.201-20.53L-24.201-4.01ZM 0.082 0L 0.082-27.12L 5.712-27.12L 5.712-24.54L 23.382-24.54Q 23.282-23.72  22.922-22.98Q 22.562-22.24  22.022-21.7Q 21.482-21.16  20.792-20.85Q 20.102-20.53  19.372-20.53L 19.372-20.53L 19.372-4.01L 24.812-4.01Q 24.712-3.19  24.352-2.45Q 23.992-1.71  23.422-1.17Q 22.862-0.63  22.132-0.32Q 21.412 0  20.592 0L 20.592 0L 18.242 0Q 17.332 0  16.512-0.47Q 15.692-0.94  15.082-1.75Q 14.472-2.55  14.122-3.63Q 13.772-4.71  13.772-5.95L 13.772-5.95L 13.772-20.53L 5.662-20.53L 5.662 0L 0.082 0ZM 32.425-30.21L 32.425-30.21Q 31.605-30.21  30.895-30.52Q 30.175-30.82  29.635-31.36Q 29.095-31.9  28.795-32.61Q 28.485-33.33  28.485-34.15L 28.485-34.15Q 28.485-34.97  28.795-35.68Q 29.095-36.4  29.635-36.94Q 30.175-37.48  30.895-37.79Q 31.605-38.11  32.425-38.11L 32.425-38.11Q 33.245-38.11  33.965-37.79Q 34.675-37.48  35.215-36.94Q 35.755-36.4  36.075-35.68Q 36.385-34.97  36.385-34.15L 36.385-34.15Q 36.385-33.33  36.075-32.61Q 35.755-31.9  35.215-31.36Q 34.675-30.82  33.945-30.52Q 33.225-30.21  32.425-30.21ZM 29.685-5.95L 29.685-24.54L 35.285-24.54L 35.285-4.01L 40.305-4.01Q 40.235-3.19  39.865-2.45Q 39.505-1.71  38.955-1.17Q 38.405-0.63  37.695-0.32Q 36.995 0  36.225 0L 36.225 0L 34.165 0Q 33.245 0  32.425-0.47Q 31.605-0.94  30.995-1.75Q 30.385-2.55  30.035-3.63Q 29.685-4.71  29.685-5.95L 29.685-5.95ZM 44.029-5.95L 44.029-24.54L 49.629-24.54L 49.629-4.01L 59.309-4.01L 59.309-24.54L 64.889-24.54L 64.889-4.01L 69.649-4.01Q 69.549-3.19  69.189-2.45Q 68.829-1.71  68.269-1.17Q 67.719-0.63  67.019-0.32Q 66.319 0  65.539 0L 65.539 0L 61.139 0L 59.309-2.98Q 59.049-2.32  58.649-1.77Q 58.259-1.22  57.749-0.83Q 57.249-0.45  56.699-0.22Q 56.149 0  55.629 0L 55.629 0L 48.479 0Q 47.569 0  46.749-0.47Q 45.929-0.94  45.329-1.75Q 44.729-2.55  44.379-3.63Q 44.029-4.71  44.029-5.95L 44.029-5.95ZM 74.57 0L 74.57-24.54L 80.17-24.54L 80.17-15.12L 85.86-22.76Q 86.61-23.65  87.42-24.11Q 88.23-24.56  89.4-24.56L 89.4-24.56Q 90.34-24.56  91.2-24.09Q 92.05-23.63  92.7-22.82Q 93.34-22.01  93.73-20.93Q 94.11-19.85  94.11-18.61L 94.11-18.61L 94.11-15.96L 99.04-22.76Q 99.79-23.63  100.72-24.09Q 101.66-24.56  102.81-24.56L 102.81-24.56Q 103.75-24.56  104.6-24.09Q 105.46-23.63  106.1-22.82Q 106.75-22.01  107.13-20.93Q 107.52-19.85  107.52-18.61L 107.52-18.61L 107.52-4.01L 111.69-4.01Q 111.6-3.19  111.23-2.45Q 110.87-1.71  110.32-1.17Q 109.77-0.63  109.07-0.32Q 108.36 0  107.59 0L 107.59 0L 106.32 0Q 105.41 0  104.6-0.47Q 103.79-0.94  103.21-1.75Q 102.62-2.55  102.28-3.63Q 101.94-4.71  101.94-5.95L 101.94-5.95L 101.94-20.04L 94.11-10.55L 94.11 0L 88.51 0L 88.51-20.04L 80.17-9.73L 80.17 0L 74.57 0Z"/></svg>