<?xml version="1.0" encoding="UTF-8"?>
<svg xmlns="http://www.w3.org/2000/svg" xmlns:xlink="http://www.w3.org/1999/xlink" width="36px" height="36px" viewBox="0 0 36 36" version="1.1">
<g id="surface1">
<rect x="0" y="0" width="36" height="36" style="fill:rgb(68.235294%,36.470588%,30.196078%);fill-opacity:1;stroke:none;"/>
<path style=" stroke:none;fill-rule:nonzero;fill:rgb(100%,53.333333%,43.921569%);fill-opacity:1;" d="M 13.347656 14.105469 C 13.15625 13.820312 13.019531 13.492188 12.960938 13.136719 C 12.925781 12.925781 13.089844 12.734375 13.304688 12.734375 C 13.527344 12.734375 13.691406 12.53125 13.644531 12.3125 C 13.578125 11.976562 13.578125 11.621094 13.660156 11.269531 C 13.707031 11.0625 13.933594 10.945312 14.132812 11.027344 C 14.335938 11.113281 14.566406 10.988281 14.605469 10.773438 C 14.671875 10.433594 14.808594 10.105469 15.015625 9.816406 C 15.140625 9.640625 15.394531 9.621094 15.546875 9.773438 C 15.703125 9.929688 15.960938 9.902344 16.082031 9.714844 C 16.273438 9.429688 16.523438 9.179688 16.828125 8.988281 C 17.011719 8.875 17.253906 8.953125 17.335938 9.152344 C 17.417969 9.355469 17.667969 9.429688 17.851562 9.304688 C 18.136719 9.113281 18.464844 8.976562 18.820312 8.917969 C 19.03125 8.882812 19.222656 9.046875 19.222656 9.261719 C 19.222656 9.484375 19.425781 9.648438 19.644531 9.601562 C 19.980469 9.535156 20.335938 9.535156 20.6875 9.617188 C 20.894531 9.664062 21.011719 9.890625 20.929688 10.089844 C 20.84375 10.292969 20.96875 10.523438 21.183594 10.5625 C 21.523438 10.628906 21.851562 10.765625 22.140625 10.972656 C 22.316406 11.097656 22.335938 11.351562 22.183594 11.503906 C 22.027344 11.660156 22.054688 11.917969 22.242188 12.039062 C 22.527344 12.230469 22.777344 12.480469 22.96875 12.785156 C 23.082031 12.96875 23.003906 13.210938 22.804688 13.292969 C 22.601562 13.375 22.527344 13.625 22.652344 13.808594 C 22.84375 14.09375 22.980469 14.421875 23.039062 14.777344 C 23.074219 14.988281 22.910156 15.179688 22.695312 15.179688 C 22.472656 15.179688 22.308594 15.382812 22.355469 15.601562 C 22.421875 15.9375 22.421875 16.292969 22.339844 16.644531 C 22.292969 16.851562 22.066406 16.96875 21.867188 16.886719 C 21.664062 16.800781 21.433594 16.925781 21.394531 17.140625 C 21.328125 17.480469 21.191406 17.808594 20.984375 18.097656 C 20.859375 18.273438 20.605469 18.292969 20.453125 18.140625 C 20.296875 17.984375 20.039062 18.011719 19.917969 18.199219 C 19.726562 18.484375 19.476562 18.734375 19.171875 18.925781 C 18.988281 19.039062 18.746094 18.960938 18.664062 18.761719 C 18.582031 18.558594 18.332031 18.484375 18.148438 18.609375 C 17.863281 18.800781 17.535156 18.9375 17.179688 18.996094 C 16.96875 19.03125 16.777344 18.867188 16.777344 18.652344 C 16.777344 18.429688 16.574219 18.265625 16.355469 18.3125 C 16.019531 18.378906 15.664062 18.378906 15.3125 18.296875 C 15.105469 18.25 14.988281 18.023438 15.070312 17.824219 C 15.15625 17.621094 15.03125 17.390625 14.816406 17.351562 C 14.476562 17.285156 14.148438 17.148438 13.855469 16.941406 C 13.683594 16.816406 13.664062 16.5625 13.816406 16.410156 C 13.96875 16.253906 13.945312 15.996094 13.757812 15.875 C 13.472656 15.683594 13.222656 15.433594 13.03125 15.128906 C 12.917969 14.945312 12.996094 14.703125 13.195312 14.621094 C 13.398438 14.539062 13.472656 14.289062 13.347656 14.105469 Z M 13.347656 14.105469 "/>
<path style=" stroke:none;fill-rule:nonzero;fill:rgb(100%,89.411765%,36.078431%);fill-opacity:1;" d="M 14.449219 13.957031 C 14.449219 15.917969 16.039062 17.507812 18 17.507812 C 19.960938 17.507812 21.550781 15.917969 21.550781 13.957031 C 21.550781 11.996094 19.960938 10.40625 18 10.40625 C 16.039062 10.40625 14.449219 11.996094 14.449219 13.957031 "/>
<path style=" stroke:none;fill-rule:nonzero;fill:rgb(100%,85.490196%,27.058824%);fill-opacity:1;" d="M 19.34375 16.164062 C 17.382812 16.164062 15.792969 14.574219 15.792969 12.613281 C 15.792969 11.976562 15.960938 11.378906 16.253906 10.863281 C 15.175781 11.476562 14.449219 12.632812 14.449219 13.957031 C 14.449219 15.917969 16.039062 17.507812 18 17.507812 C 19.324219 17.507812 20.480469 16.78125 21.09375 15.703125 C 20.578125 15.996094 19.980469 16.164062 19.34375 16.164062 Z M 19.34375 16.164062 "/>
<path style=" stroke:none;fill-rule:nonzero;fill:rgb(94.901961%,96.470588%,98.823529%);fill-opacity:1;" d="M 15.738281 14.699219 C 15.28125 14.699219 14.90625 14.398438 14.90625 14.035156 C 14.910156 13.667969 15.28125 13.371094 15.742188 13.371094 C 16.203125 13.371094 16.574219 13.671875 16.574219 14.035156 C 16.574219 14.402344 16.199219 14.699219 15.738281 14.699219 Z M 15.738281 14.699219 "/>
<path style=" stroke:none;fill-rule:nonzero;fill:rgb(94.901961%,96.470588%,98.823529%);fill-opacity:1;" d="M 20.253906 14.707031 C 19.792969 14.707031 19.421875 14.410156 19.421875 14.042969 C 19.421875 13.675781 19.796875 13.378906 20.257812 13.382812 C 20.71875 13.382812 21.089844 13.679688 21.089844 14.046875 C 21.089844 14.414062 20.714844 14.710938 20.253906 14.707031 Z M 20.253906 14.707031 "/>
<path style=" stroke:none;fill-rule:nonzero;fill:rgb(0%,0%,0%);fill-opacity:1;" d="M 16.234375 13.792969 C 16.097656 13.792969 15.984375 13.683594 15.984375 13.542969 L 15.984375 13.203125 C 15.984375 13.066406 16.097656 12.953125 16.234375 12.953125 C 16.375 12.953125 16.488281 13.066406 16.488281 13.203125 L 16.488281 13.542969 C 16.488281 13.683594 16.375 13.792969 16.234375 13.792969 Z M 16.234375 13.792969 "/>
<path style=" stroke:none;fill-rule:nonzero;fill:rgb(0%,0%,0%);fill-opacity:1;" d="M 19.757812 13.792969 C 19.621094 13.792969 19.507812 13.683594 19.507812 13.542969 L 19.507812 13.203125 C 19.507812 13.066406 19.621094 12.953125 19.757812 12.953125 C 19.898438 12.953125 20.011719 13.066406 20.011719 13.203125 L 20.011719 13.542969 C 20.011719 13.683594 19.898438 13.792969 19.757812 13.792969 Z M 19.757812 13.792969 "/>
<path style=" stroke:none;fill-rule:nonzero;fill:rgb(0%,0%,0%);fill-opacity:1;" d="M 18.816406 13.492188 C 18.679688 13.492188 18.566406 13.605469 18.566406 13.746094 C 18.566406 13.832031 18.496094 13.898438 18.410156 13.898438 C 18.324219 13.898438 18.253906 13.832031 18.253906 13.746094 C 18.253906 13.605469 18.140625 13.492188 18.003906 13.492188 C 17.863281 13.492188 17.75 13.605469 17.75 13.746094 C 17.75 13.832031 17.679688 13.898438 17.59375 13.898438 C 17.507812 13.898438 17.4375 13.832031 17.4375 13.746094 C 17.4375 13.605469 17.328125 13.492188 17.1875 13.492188 C 17.046875 13.492188 16.933594 13.605469 16.933594 13.746094 C 16.933594 14.109375 17.230469 14.40625 17.59375 14.40625 C 17.75 14.40625 17.890625 14.351562 18.003906 14.261719 C 18.113281 14.351562 18.257812 14.40625 18.410156 14.40625 C 18.773438 14.40625 19.070312 14.109375 19.070312 13.746094 C 19.070312 13.605469 18.957031 13.492188 18.816406 13.492188 Z M 18.816406 13.492188 "/>
<path style=" stroke:none;fill-rule:nonzero;fill:rgb(52.941176%,78.039216%,100%);fill-opacity:1;" d="M 23.234375 8.050781 C 23.234375 8.421875 23.535156 8.722656 23.90625 8.722656 C 24.277344 8.722656 24.578125 8.421875 24.578125 8.050781 C 24.578125 7.679688 24.277344 7.375 23.90625 7.375 C 23.535156 7.375 23.234375 7.679688 23.234375 8.050781 "/>
<path style=" stroke:none;fill-rule:nonzero;fill:rgb(80.392157%,76.470588%,70.588235%);fill-opacity:1;" d="M 17.328125 20.679688 C 17.328125 21.050781 17.628906 21.355469 18 21.355469 C 18.371094 21.355469 18.671875 21.050781 18.671875 20.679688 C 18.671875 20.308594 18.371094 20.007812 18 20.007812 C 17.628906 20.007812 17.328125 20.308594 17.328125 20.679688 "/>
<path style=" stroke:none;fill-rule:nonzero;fill:rgb(0%,0%,0%);fill-opacity:1;" d="M 19.667969 20.726562 C 19.6875 20.726562 19.710938 20.722656 19.730469 20.71875 C 21.144531 20.355469 22.390625 19.570312 23.335938 18.449219 C 24.292969 17.3125 24.855469 15.933594 24.957031 14.453125 C 24.96875 14.316406 24.863281 14.195312 24.726562 14.183594 C 24.585938 14.175781 24.464844 14.28125 24.457031 14.417969 C 24.257812 17.203125 22.308594 19.539062 19.605469 20.226562 C 19.472656 20.261719 19.390625 20.398438 19.425781 20.535156 C 19.453125 20.648438 19.554688 20.726562 19.667969 20.726562 Z M 19.667969 20.726562 "/>
<path style=" stroke:none;fill-rule:nonzero;fill:rgb(0%,0%,0%);fill-opacity:1;" d="M 18 6.980469 C 14.152344 6.980469 11.023438 10.109375 11.023438 13.957031 C 11.023438 17.140625 13.175781 19.921875 16.257812 20.714844 C 16.277344 20.71875 16.296875 20.722656 16.320312 20.722656 C 16.429688 20.722656 16.535156 20.644531 16.5625 20.53125 C 16.597656 20.398438 16.515625 20.261719 16.382812 20.226562 C 13.523438 19.488281 11.527344 16.910156 11.527344 13.957031 C 11.527344 10.386719 14.429688 7.484375 18 7.484375 C 21.386719 7.484375 24.222656 10.128906 24.457031 13.503906 C 24.464844 13.644531 24.585938 13.746094 24.726562 13.738281 C 24.863281 13.726562 24.96875 13.609375 24.960938 13.46875 C 24.835938 11.710938 24.058594 10.074219 22.769531 8.867188 C 21.472656 7.648438 19.777344 6.980469 18 6.980469 Z M 18 6.980469 "/>
<path style=" stroke:none;fill-rule:nonzero;fill:rgb(0%,0%,0%);fill-opacity:1;" d="M 9.898438 13.957031 C 9.898438 9.488281 13.53125 5.855469 18 5.855469 C 19.597656 5.855469 21.140625 6.316406 22.464844 7.195312 C 22.582031 7.273438 22.738281 7.242188 22.816406 7.125 C 22.894531 7.007812 22.859375 6.851562 22.746094 6.773438 C 21.335938 5.84375 19.695312 5.351562 18 5.351562 C 15.699219 5.351562 13.539062 6.246094 11.914062 7.871094 C 10.289062 9.496094 9.394531 11.65625 9.394531 13.957031 C 9.394531 16.039062 10.148438 18.050781 11.515625 19.617188 C 11.566406 19.675781 11.636719 19.703125 11.707031 19.703125 C 11.765625 19.703125 11.824219 19.683594 11.871094 19.640625 C 11.976562 19.550781 11.988281 19.390625 11.894531 19.285156 C 10.605469 17.808594 9.898438 15.917969 9.898438 13.957031 Z M 9.898438 13.957031 "/>
<path style=" stroke:none;fill-rule:nonzero;fill:rgb(0%,0%,0%);fill-opacity:1;" d="M 25.183594 9.210938 C 25.105469 9.097656 24.949219 9.0625 24.832031 9.140625 C 24.714844 9.21875 24.683594 9.375 24.761719 9.492188 C 25.640625 10.816406 26.101562 12.359375 26.101562 13.957031 C 26.101562 18.425781 22.46875 22.058594 18 22.058594 C 15.980469 22.058594 14.046875 21.3125 12.550781 19.953125 C 12.449219 19.859375 12.289062 19.867188 12.195312 19.972656 C 12.101562 20.074219 12.109375 20.234375 12.210938 20.328125 C 13.800781 21.769531 15.855469 22.5625 18 22.5625 C 20.300781 22.5625 22.460938 21.667969 24.085938 20.042969 C 25.710938 18.417969 26.605469 16.257812 26.605469 13.957031 C 26.605469 12.261719 26.113281 10.621094 25.183594 9.210938 Z M 25.183594 9.210938 "/>
<path style=" stroke:none;fill-rule:nonzero;fill:rgb(0%,0%,0%);fill-opacity:1;" d="M 19.304688 19.140625 C 19.636719 18.933594 19.910156 18.664062 20.125 18.335938 C 20.152344 18.296875 20.191406 18.292969 20.207031 18.292969 C 20.226562 18.292969 20.253906 18.296875 20.273438 18.320312 C 20.390625 18.433594 20.539062 18.496094 20.699219 18.496094 C 20.894531 18.496094 21.074219 18.402344 21.1875 18.246094 C 21.414062 17.929688 21.566406 17.574219 21.640625 17.1875 C 21.652344 17.136719 21.695312 17.109375 21.734375 17.109375 C 21.746094 17.109375 21.761719 17.113281 21.773438 17.117188 C 21.84375 17.148438 21.921875 17.164062 22 17.164062 C 22.28125 17.164062 22.523438 16.972656 22.585938 16.699219 C 22.675781 16.320312 22.679688 15.933594 22.601562 15.550781 C 22.59375 15.511719 22.609375 15.480469 22.621094 15.46875 C 22.632812 15.457031 22.65625 15.433594 22.695312 15.433594 C 22.871094 15.433594 23.039062 15.355469 23.152344 15.222656 C 23.265625 15.085938 23.316406 14.910156 23.285156 14.734375 C 23.222656 14.351562 23.078125 13.992188 22.859375 13.667969 C 22.835938 13.632812 22.84375 13.601562 22.847656 13.585938 C 22.851562 13.570312 22.867188 13.539062 22.902344 13.523438 C 23.066406 13.457031 23.191406 13.320312 23.246094 13.152344 C 23.296875 12.984375 23.277344 12.804688 23.183594 12.652344 C 22.976562 12.320312 22.707031 12.046875 22.378906 11.828125 C 22.347656 11.808594 22.335938 11.777344 22.335938 11.757812 C 22.335938 11.742188 22.335938 11.710938 22.363281 11.683594 C 22.488281 11.554688 22.550781 11.382812 22.539062 11.207031 C 22.523438 11.03125 22.433594 10.871094 22.289062 10.769531 C 21.972656 10.542969 21.617188 10.390625 21.230469 10.316406 C 21.191406 10.308594 21.171875 10.28125 21.164062 10.265625 C 21.15625 10.253906 21.144531 10.222656 21.160156 10.183594 C 21.226562 10.023438 21.222656 9.835938 21.140625 9.679688 C 21.058594 9.523438 20.914062 9.410156 20.742188 9.371094 C 20.367188 9.28125 19.972656 9.277344 19.59375 9.355469 C 19.585938 9.359375 19.578125 9.359375 19.570312 9.359375 C 19.527344 9.359375 19.476562 9.320312 19.476562 9.261719 C 19.476562 8.929688 19.207031 8.660156 18.878906 8.660156 C 18.84375 8.660156 18.8125 8.664062 18.777344 8.671875 C 18.394531 8.734375 18.035156 8.878906 17.710938 9.097656 C 17.695312 9.109375 17.675781 9.113281 17.65625 9.113281 C 17.628906 9.113281 17.585938 9.097656 17.566406 9.054688 C 17.472656 8.828125 17.257812 8.683594 17.011719 8.683594 C 16.902344 8.683594 16.792969 8.714844 16.695312 8.773438 C 16.363281 8.980469 16.089844 9.25 15.871094 9.578125 C 15.847656 9.617188 15.808594 9.621094 15.792969 9.621094 C 15.773438 9.621094 15.746094 9.617188 15.722656 9.59375 C 15.609375 9.480469 15.460938 9.417969 15.300781 9.417969 C 15.105469 9.417969 14.925781 9.511719 14.8125 9.667969 C 14.585938 9.984375 14.433594 10.339844 14.359375 10.726562 C 14.347656 10.777344 14.304688 10.804688 14.265625 10.804688 C 14.253906 10.804688 14.238281 10.800781 14.226562 10.796875 C 14.15625 10.765625 14.078125 10.75 13.996094 10.75 C 13.71875 10.75 13.476562 10.941406 13.414062 11.214844 C 13.324219 11.59375 13.320312 11.980469 13.398438 12.363281 C 13.40625 12.402344 13.390625 12.433594 13.378906 12.445312 C 13.367188 12.457031 13.34375 12.480469 13.304688 12.480469 C 13.128906 12.480469 12.960938 12.558594 12.847656 12.691406 C 12.734375 12.828125 12.683594 13.003906 12.710938 13.179688 C 12.777344 13.5625 12.921875 13.921875 13.140625 14.246094 C 13.164062 14.28125 13.15625 14.3125 13.152344 14.328125 C 13.148438 14.34375 13.132812 14.375 13.097656 14.390625 C 12.933594 14.457031 12.808594 14.59375 12.753906 14.761719 C 12.703125 14.929688 12.722656 15.109375 12.816406 15.261719 C 13.023438 15.59375 13.292969 15.867188 13.621094 16.085938 C 13.652344 16.105469 13.660156 16.136719 13.664062 16.15625 C 13.664062 16.171875 13.664062 16.203125 13.636719 16.230469 C 13.511719 16.359375 13.449219 16.53125 13.460938 16.707031 C 13.476562 16.882812 13.566406 17.042969 13.710938 17.144531 C 14.027344 17.371094 14.382812 17.523438 14.769531 17.597656 C 14.808594 17.605469 14.828125 17.632812 14.835938 17.648438 C 14.84375 17.660156 14.855469 17.691406 14.839844 17.730469 C 14.769531 17.890625 14.777344 18.078125 14.859375 18.234375 C 14.941406 18.390625 15.085938 18.503906 15.257812 18.542969 C 15.632812 18.632812 16.027344 18.636719 16.40625 18.558594 C 16.414062 18.554688 16.421875 18.554688 16.425781 18.554688 C 16.472656 18.554688 16.523438 18.59375 16.523438 18.652344 C 16.523438 18.8125 16.585938 18.964844 16.699219 19.078125 C 16.8125 19.191406 16.964844 19.253906 17.121094 19.253906 C 17.15625 19.253906 17.1875 19.25 17.222656 19.246094 C 17.605469 19.179688 17.964844 19.035156 18.289062 18.816406 C 18.304688 18.804688 18.324219 18.800781 18.34375 18.800781 C 18.371094 18.800781 18.414062 18.816406 18.433594 18.859375 C 18.527344 19.085938 18.742188 19.230469 18.988281 19.230469 C 19.097656 19.230469 19.207031 19.199219 19.304688 19.140625 Z M 18.898438 18.667969 C 18.804688 18.441406 18.585938 18.296875 18.34375 18.296875 C 18.222656 18.296875 18.105469 18.332031 18.007812 18.398438 C 17.742188 18.578125 17.449219 18.695312 17.136719 18.746094 C 17.132812 18.746094 17.128906 18.746094 17.121094 18.746094 C 17.089844 18.746094 17.066406 18.730469 17.054688 18.71875 C 17.042969 18.707031 17.027344 18.683594 17.027344 18.652344 C 17.027344 18.320312 16.757812 18.050781 16.425781 18.050781 C 16.386719 18.050781 16.347656 18.054688 16.304688 18.0625 C 15.996094 18.128906 15.675781 18.125 15.371094 18.050781 C 15.335938 18.042969 15.316406 18.019531 15.308594 18.003906 C 15.300781 17.988281 15.289062 17.957031 15.304688 17.921875 C 15.375 17.753906 15.363281 17.566406 15.277344 17.40625 C 15.191406 17.25 15.042969 17.136719 14.863281 17.101562 C 14.550781 17.042969 14.261719 16.917969 14.003906 16.734375 C 13.972656 16.710938 13.964844 16.683594 13.964844 16.664062 C 13.964844 16.648438 13.964844 16.617188 13.992188 16.589844 C 14.121094 16.460938 14.183594 16.285156 14.164062 16.105469 C 14.148438 15.921875 14.050781 15.761719 13.898438 15.664062 C 13.632812 15.488281 13.414062 15.261719 13.246094 14.992188 C 13.226562 14.960938 13.230469 14.929688 13.234375 14.914062 C 13.242188 14.898438 13.253906 14.871094 13.289062 14.855469 C 13.457031 14.785156 13.582031 14.648438 13.636719 14.472656 C 13.6875 14.300781 13.660156 14.113281 13.558594 13.964844 C 13.378906 13.699219 13.261719 13.40625 13.210938 13.09375 C 13.203125 13.058594 13.222656 13.03125 13.230469 13.019531 C 13.242188 13.007812 13.265625 12.984375 13.304688 12.984375 C 13.488281 12.984375 13.65625 12.902344 13.769531 12.765625 C 13.886719 12.625 13.929688 12.441406 13.894531 12.261719 C 13.828125 11.953125 13.832031 11.636719 13.90625 11.328125 C 13.917969 11.277344 13.960938 11.253906 13.996094 11.253906 C 14.011719 11.253906 14.023438 11.257812 14.035156 11.261719 C 14.109375 11.292969 14.1875 11.308594 14.265625 11.308594 C 14.550781 11.308594 14.800781 11.101562 14.855469 10.820312 C 14.914062 10.507812 15.039062 10.21875 15.222656 9.960938 C 15.246094 9.925781 15.285156 9.921875 15.300781 9.921875 C 15.316406 9.921875 15.34375 9.925781 15.367188 9.949219 C 15.480469 10.0625 15.632812 10.125 15.792969 10.125 C 15.996094 10.125 16.183594 10.023438 16.292969 9.855469 C 16.46875 9.589844 16.695312 9.371094 16.960938 9.203125 C 16.976562 9.191406 16.996094 9.1875 17.011719 9.1875 C 17.042969 9.1875 17.082031 9.203125 17.101562 9.246094 C 17.195312 9.472656 17.414062 9.617188 17.65625 9.617188 C 17.777344 9.617188 17.894531 9.582031 17.992188 9.515625 C 18.257812 9.335938 18.546875 9.21875 18.859375 9.167969 C 18.867188 9.167969 18.871094 9.167969 18.878906 9.167969 C 18.921875 9.167969 18.972656 9.203125 18.972656 9.261719 C 18.972656 9.59375 19.242188 9.863281 19.570312 9.863281 C 19.613281 9.863281 19.652344 9.859375 19.695312 9.851562 C 20.003906 9.785156 20.324219 9.789062 20.628906 9.863281 C 20.664062 9.871094 20.683594 9.894531 20.691406 9.910156 C 20.699219 9.925781 20.710938 9.957031 20.695312 9.992188 C 20.625 10.160156 20.636719 10.347656 20.722656 10.507812 C 20.808594 10.664062 20.957031 10.777344 21.136719 10.8125 C 21.449219 10.871094 21.738281 10.996094 21.996094 11.179688 C 22.027344 11.203125 22.035156 11.230469 22.035156 11.25 C 22.035156 11.265625 22.035156 11.296875 22.007812 11.324219 C 21.878906 11.453125 21.816406 11.628906 21.835938 11.808594 C 21.851562 11.992188 21.949219 12.152344 22.101562 12.25 C 22.367188 12.425781 22.585938 12.652344 22.753906 12.921875 C 22.773438 12.953125 22.769531 12.984375 22.765625 13 C 22.757812 13.015625 22.746094 13.042969 22.710938 13.058594 C 22.542969 13.128906 22.414062 13.265625 22.363281 13.441406 C 22.3125 13.613281 22.339844 13.800781 22.441406 13.949219 C 22.621094 14.214844 22.738281 14.507812 22.789062 14.820312 C 22.796875 14.855469 22.777344 14.882812 22.769531 14.894531 C 22.757812 14.90625 22.734375 14.929688 22.695312 14.929688 C 22.511719 14.929688 22.34375 15.011719 22.230469 15.148438 C 22.113281 15.289062 22.070312 15.472656 22.105469 15.652344 C 22.171875 15.960938 22.167969 16.277344 22.09375 16.585938 C 22.082031 16.636719 22.039062 16.660156 22 16.660156 C 21.988281 16.660156 21.976562 16.65625 21.964844 16.652344 C 21.890625 16.621094 21.8125 16.605469 21.734375 16.605469 C 21.449219 16.605469 21.199219 16.8125 21.144531 17.09375 C 21.085938 17.40625 20.960938 17.695312 20.777344 17.953125 C 20.753906 17.988281 20.714844 17.992188 20.699219 17.992188 C 20.683594 17.992188 20.65625 17.988281 20.632812 17.964844 C 20.519531 17.851562 20.367188 17.789062 20.207031 17.789062 C 20.003906 17.789062 19.816406 17.890625 19.707031 18.058594 C 19.53125 18.324219 19.304688 18.542969 19.035156 18.710938 C 19.023438 18.722656 19.003906 18.726562 18.988281 18.726562 C 18.957031 18.726562 18.917969 18.710938 18.898438 18.667969 Z M 18.898438 18.667969 "/>
<path style=" stroke:none;fill-rule:nonzero;fill:rgb(0%,0%,0%);fill-opacity:1;" d="M 21.804688 13.957031 C 21.804688 11.859375 20.097656 10.152344 18 10.152344 C 15.902344 10.152344 14.195312 11.859375 14.195312 13.957031 C 14.195312 16.054688 15.902344 17.761719 18 17.761719 C 20.097656 17.761719 21.804688 16.054688 21.804688 13.957031 Z M 18 17.257812 C 16.179688 17.257812 14.699219 15.777344 14.699219 13.957031 C 14.699219 12.136719 16.179688 10.65625 18 10.65625 C 19.820312 10.65625 21.300781 12.136719 21.300781 13.957031 C 21.300781 15.777344 19.820312 17.257812 18 17.257812 Z M 18 17.257812 "/>
<path style=" stroke:none;fill-rule:nonzero;fill:rgb(0%,0%,0%);fill-opacity:1;" d="M 23.90625 8.972656 C 24.15625 8.972656 24.386719 8.878906 24.5625 8.703125 C 24.921875 8.34375 24.921875 7.757812 24.5625 7.394531 C 24.386719 7.222656 24.15625 7.125 23.90625 7.125 C 23.660156 7.125 23.429688 7.222656 23.253906 7.394531 C 23.078125 7.570312 22.984375 7.800781 22.984375 8.050781 C 22.984375 8.296875 23.078125 8.527344 23.253906 8.703125 C 23.429688 8.878906 23.660156 8.972656 23.90625 8.972656 Z M 23.609375 7.753906 C 23.691406 7.671875 23.796875 7.628906 23.90625 7.628906 C 24.019531 7.628906 24.125 7.671875 24.203125 7.753906 C 24.367188 7.917969 24.367188 8.183594 24.203125 8.347656 C 24.125 8.425781 24.019531 8.46875 23.90625 8.46875 C 23.796875 8.46875 23.691406 8.425781 23.609375 8.347656 C 23.445312 8.183594 23.445312 7.917969 23.609375 7.753906 Z M 23.609375 7.753906 "/>
<path style=" stroke:none;fill-rule:nonzero;fill:rgb(0%,0%,0%);fill-opacity:1;" d="M 17.074219 20.679688 C 17.074219 21.191406 17.488281 21.605469 18 21.605469 C 18.507812 21.605469 18.925781 21.191406 18.925781 20.679688 C 18.925781 20.171875 18.507812 19.757812 18 19.757812 C 17.488281 19.757812 17.074219 20.171875 17.074219 20.679688 Z M 18.421875 20.679688 C 18.421875 20.914062 18.230469 21.101562 18 21.101562 C 17.769531 21.101562 17.578125 20.914062 17.578125 20.679688 C 17.578125 20.449219 17.769531 20.261719 18 20.261719 C 18.230469 20.261719 18.421875 20.449219 18.421875 20.679688 Z M 18.421875 20.679688 "/>
<path style=" stroke:none;fill-rule:nonzero;fill:rgb(100%,100%,100%);fill-opacity:1;" d="M 3.261719 28.945312 L 3.261719 23.933594 L 4.015625 23.933594 L 4.015625 26.003906 C 4.074219 25.890625 4.148438 25.800781 4.234375 25.738281 C 4.320312 25.675781 4.414062 25.644531 4.519531 25.644531 L 5.46875 25.644531 C 5.550781 25.644531 5.628906 25.664062 5.699219 25.707031 C 5.773438 25.75 5.835938 25.808594 5.890625 25.878906 C 5.945312 25.953125 5.988281 26.035156 6.019531 26.132812 C 6.050781 26.230469 6.066406 26.332031 6.066406 26.445312 L 6.066406 28.40625 L 6.742188 28.40625 C 6.734375 28.480469 6.710938 28.546875 6.679688 28.613281 C 6.648438 28.679688 6.605469 28.738281 6.558594 28.789062 C 6.511719 28.835938 6.453125 28.875 6.390625 28.902344 C 6.328125 28.929688 6.261719 28.945312 6.195312 28.945312 L 5.914062 28.945312 C 5.832031 28.945312 5.753906 28.921875 5.683594 28.882812 C 5.609375 28.839844 5.542969 28.78125 5.488281 28.710938 C 5.433594 28.636719 5.390625 28.554688 5.359375 28.457031 C 5.328125 28.359375 5.3125 28.253906 5.3125 28.144531 L 5.3125 26.183594 L 4.015625 26.183594 L 4.015625 28.945312 Z M 7.28125 28.144531 L 7.28125 25.644531 L 8.035156 25.644531 L 8.035156 28.40625 L 9.332031 28.40625 L 9.332031 25.644531 L 10.085938 25.644531 L 10.085938 28.40625 L 10.722656 28.40625 C 10.714844 28.480469 10.695312 28.546875 10.660156 28.613281 C 10.628906 28.679688 10.585938 28.738281 10.539062 28.789062 C 10.488281 28.835938 10.433594 28.875 10.371094 28.902344 C 10.308594 28.929688 10.242188 28.945312 10.171875 28.945312 L 10.085938 28.945312 L 10.085938 29.84375 C 10.085938 29.953125 10.070312 30.058594 10.039062 30.15625 C 10.007812 30.253906 9.964844 30.339844 9.910156 30.410156 C 9.855469 30.484375 9.792969 30.542969 9.71875 30.585938 C 9.644531 30.628906 9.570312 30.648438 9.488281 30.648438 L 7.960938 30.648438 L 7.960938 30.105469 L 9.332031 30.105469 L 9.332031 28.605469 C 9.277344 28.710938 9.203125 28.792969 9.113281 28.855469 C 9.023438 28.914062 8.929688 28.945312 8.828125 28.945312 L 7.878906 28.945312 C 7.796875 28.945312 7.71875 28.921875 7.644531 28.882812 C 7.574219 28.839844 7.507812 28.78125 7.457031 28.710938 C 7.402344 28.636719 7.359375 28.554688 7.328125 28.457031 C 7.296875 28.359375 7.28125 28.253906 7.28125 28.144531 Z M 11.394531 28.144531 L 11.394531 26.128906 L 11.140625 26.128906 L 11.140625 25.644531 L 11.394531 25.644531 L 11.394531 24.769531 L 12.144531 24.394531 L 12.144531 25.644531 L 12.996094 25.644531 L 12.996094 26.128906 L 12.144531 26.128906 L 12.144531 28.40625 L 13.277344 28.40625 C 13.265625 28.480469 13.246094 28.546875 13.214844 28.613281 C 13.183594 28.679688 13.140625 28.738281 13.089844 28.789062 C 13.039062 28.835938 12.980469 28.875 12.917969 28.902344 C 12.855469 28.929688 12.789062 28.945312 12.71875 28.945312 L 11.992188 28.945312 C 11.910156 28.945312 11.832031 28.921875 11.757812 28.882812 C 11.683594 28.839844 11.621094 28.78125 11.566406 28.710938 C 11.515625 28.636719 11.472656 28.554688 11.441406 28.457031 C 11.410156 28.359375 11.394531 28.253906 11.394531 28.144531 Z M 13.710938 28.148438 L 13.710938 26.445312 C 13.710938 26.332031 13.726562 26.230469 13.757812 26.132812 C 13.789062 26.035156 13.832031 25.949219 13.886719 25.875 C 13.9375 25.804688 14 25.746094 14.074219 25.707031 C 14.144531 25.664062 14.222656 25.644531 14.304688 25.644531 L 16.945312 25.644531 C 16.9375 25.71875 16.914062 25.789062 16.882812 25.855469 C 16.851562 25.921875 16.808594 25.976562 16.761719 26.027344 C 16.710938 26.074219 16.65625 26.113281 16.589844 26.140625 C 16.527344 26.167969 16.460938 26.183594 16.394531 26.183594 L 16.195312 26.183594 C 16.234375 26.214844 16.273438 26.25 16.3125 26.296875 C 16.351562 26.34375 16.386719 26.398438 16.417969 26.457031 C 16.445312 26.519531 16.472656 26.585938 16.488281 26.660156 C 16.507812 26.730469 16.515625 26.808594 16.515625 26.890625 L 16.515625 28.148438 C 16.515625 28.257812 16.5 28.363281 16.46875 28.460938 C 16.4375 28.554688 16.394531 28.640625 16.339844 28.710938 C 16.285156 28.78125 16.222656 28.839844 16.148438 28.882812 C 16.074219 28.921875 16 28.945312 15.917969 28.945312 L 14.304688 28.945312 C 14.222656 28.945312 14.144531 28.921875 14.074219 28.882812 C 14 28.839844 13.9375 28.78125 13.886719 28.710938 C 13.832031 28.640625 13.789062 28.554688 13.757812 28.460938 C 13.726562 28.363281 13.710938 28.257812 13.710938 28.148438 Z M 14.464844 28.40625 L 15.761719 28.40625 L 15.761719 26.183594 L 14.464844 26.183594 Z M 17.730469 28.945312 L 17.730469 25.296875 L 18.484375 25.296875 L 18.484375 25.644531 L 20.863281 25.644531 C 20.851562 25.71875 20.832031 25.789062 20.800781 25.855469 C 20.769531 25.921875 20.726562 25.976562 20.679688 26.027344 C 20.632812 26.074219 20.574219 26.113281 20.515625 26.140625 C 20.453125 26.167969 20.386719 26.183594 20.324219 26.183594 L 20.324219 28.40625 L 21.054688 28.40625 C 21.046875 28.480469 21.023438 28.546875 20.992188 28.613281 C 20.960938 28.679688 20.917969 28.738281 20.867188 28.789062 C 20.816406 28.835938 20.761719 28.875 20.695312 28.902344 C 20.628906 28.929688 20.5625 28.945312 20.488281 28.945312 L 20.171875 28.945312 C 20.089844 28.945312 20.011719 28.921875 19.9375 28.882812 C 19.863281 28.839844 19.800781 28.78125 19.746094 28.710938 C 19.691406 28.636719 19.648438 28.554688 19.617188 28.457031 C 19.585938 28.359375 19.570312 28.253906 19.570312 28.144531 L 19.570312 26.183594 L 18.480469 26.183594 L 18.480469 28.945312 Z M 22.078125 24.882812 C 22.003906 24.882812 21.9375 24.867188 21.871094 24.839844 C 21.808594 24.8125 21.75 24.777344 21.703125 24.726562 C 21.65625 24.679688 21.617188 24.621094 21.589844 24.558594 C 21.5625 24.496094 21.546875 24.425781 21.546875 24.351562 C 21.546875 24.277344 21.5625 24.210938 21.589844 24.144531 C 21.617188 24.082031 21.65625 24.023438 21.703125 23.976562 C 21.75 23.929688 21.808594 23.890625 21.871094 23.863281 C 21.9375 23.832031 22.003906 23.820312 22.078125 23.820312 C 22.152344 23.820312 22.222656 23.832031 22.285156 23.863281 C 22.347656 23.890625 22.40625 23.929688 22.453125 23.976562 C 22.503906 24.023438 22.539062 24.082031 22.570312 24.144531 C 22.597656 24.210938 22.609375 24.277344 22.609375 24.351562 C 22.609375 24.425781 22.597656 24.496094 22.570312 24.558594 C 22.539062 24.621094 22.503906 24.679688 22.453125 24.726562 C 22.40625 24.777344 22.347656 24.8125 22.28125 24.839844 C 22.21875 24.867188 22.148438 24.882812 22.078125 24.882812 Z M 21.710938 28.144531 L 21.710938 25.644531 L 22.464844 25.644531 L 22.464844 28.40625 L 23.136719 28.40625 C 23.132812 28.480469 23.113281 28.546875 23.078125 28.613281 C 23.046875 28.679688 23.007812 28.738281 22.957031 28.789062 C 22.90625 28.835938 22.851562 28.875 22.789062 28.902344 C 22.722656 28.929688 22.660156 28.945312 22.589844 28.945312 L 22.3125 28.945312 C 22.230469 28.945312 22.152344 28.921875 22.078125 28.882812 C 22.003906 28.839844 21.941406 28.78125 21.886719 28.710938 C 21.832031 28.636719 21.789062 28.554688 21.757812 28.457031 C 21.726562 28.359375 21.710938 28.253906 21.710938 28.144531 Z M 23.640625 28.144531 L 23.640625 25.644531 L 24.390625 25.644531 L 24.390625 28.40625 L 25.695312 28.40625 L 25.695312 25.644531 L 26.445312 25.644531 L 26.445312 28.40625 L 27.085938 28.40625 C 27.074219 28.480469 27.054688 28.546875 27.023438 28.613281 C 26.992188 28.679688 26.949219 28.738281 26.898438 28.789062 C 26.851562 28.835938 26.792969 28.875 26.730469 28.902344 C 26.667969 28.929688 26.601562 28.945312 26.53125 28.945312 L 25.941406 28.945312 L 25.695312 28.542969 C 25.671875 28.601562 25.640625 28.65625 25.605469 28.707031 C 25.570312 28.757812 25.53125 28.796875 25.484375 28.832031 C 25.4375 28.867188 25.390625 28.894531 25.34375 28.914062 C 25.292969 28.933594 25.246094 28.945312 25.199219 28.945312 L 24.238281 28.945312 C 24.15625 28.945312 24.078125 28.921875 24.003906 28.882812 C 23.929688 28.839844 23.867188 28.78125 23.8125 28.710938 C 23.761719 28.636719 23.71875 28.554688 23.6875 28.457031 C 23.65625 28.359375 23.640625 28.253906 23.640625 28.144531 Z M 27.746094 28.945312 L 27.746094 25.644531 L 28.5 25.644531 L 28.5 26.910156 L 29.265625 25.882812 C 29.332031 25.804688 29.402344 25.742188 29.472656 25.703125 C 29.546875 25.660156 29.636719 25.640625 29.742188 25.640625 C 29.824219 25.640625 29.90625 25.664062 29.984375 25.703125 C 30.058594 25.746094 30.125 25.804688 30.183594 25.875 C 30.242188 25.949219 30.289062 26.03125 30.324219 26.128906 C 30.355469 26.226562 30.375 26.332031 30.375 26.441406 L 30.375 26.796875 L 31.039062 25.882812 C 31.105469 25.804688 31.179688 25.746094 31.261719 25.703125 C 31.347656 25.664062 31.441406 25.640625 31.542969 25.640625 C 31.628906 25.640625 31.707031 25.664062 31.785156 25.703125 C 31.863281 25.746094 31.929688 25.804688 31.988281 25.875 C 32.046875 25.949219 32.089844 26.03125 32.125 26.128906 C 32.160156 26.226562 32.175781 26.332031 32.175781 26.441406 L 32.175781 28.40625 L 32.738281 28.40625 C 32.730469 28.480469 32.710938 28.546875 32.675781 28.613281 C 32.644531 28.679688 32.601562 28.738281 32.554688 28.789062 C 32.503906 28.835938 32.449219 28.875 32.386719 28.902344 C 32.324219 28.929688 32.257812 28.945312 32.1875 28.945312 L 32.015625 28.945312 C 31.933594 28.945312 31.859375 28.921875 31.785156 28.882812 C 31.710938 28.839844 31.648438 28.78125 31.597656 28.710938 C 31.546875 28.636719 31.503906 28.554688 31.472656 28.457031 C 31.441406 28.359375 31.425781 28.253906 31.425781 28.144531 L 31.425781 26.25 L 30.375 27.527344 L 30.375 28.945312 L 29.621094 28.945312 L 29.621094 26.25 L 28.5 27.636719 L 28.5 28.945312 Z M 27.746094 28.945312 "/>
</g>
</svg>
