<svg xmlns="http://www.w3.org/2000/svg" width="512" height="512" viewBox="0 0 512 512" style="overflow: visible;"><g data-uid="o_f7bik9hgl_51" transform="matrix(1.367699183598143, 0, 0, 1.367699183598143, -99.05470806207788, -38.46584835755982)"><g data-icon="" transform="matrix(0.47816255277023906, 0, 0, 0.47816255277023906, 72.42433807811801, 92.89054214018199)" data-uid="o_f7bik9hgl_5"><path d="m117.658 260.393c-5.755-8.489-9.765-18.256-11.516-28.787-1.047-6.3 3.842-12.028 10.228-12.028 6.567 0 11.462-6.029 10.137-12.461-2.068-10.045-2.036-20.603.377-31.003 1.443-6.221 8.152-9.642 14.052-7.198 6.067 2.513 12.896-1.184 14.134-7.633 1.933-10.072 6.003-19.814 12.212-28.498 3.714-5.195 11.221-5.789 15.737-1.273 4.643 4.643 12.368 3.841 15.979-1.643 5.64-8.565 13.129-16.008 22.189-21.656 5.42-3.378 12.583-1.054 15.027 4.847 2.513 6.067 9.956 8.282 15.392 4.597 8.489-5.755 18.256-9.765 28.787-11.516 6.3-1.047 12.028 3.842 12.028 10.228 0 6.567 6.029 11.462 12.461 10.137 10.045-2.068 20.603-2.036 31.003.377 6.221 1.443 9.642 8.152 7.198 14.052-2.513 6.067 1.184 12.896 7.633 14.134 10.072 1.933 19.814 6.003 28.498 12.212 5.195 3.714 5.789 11.221 1.273 15.737-4.643 4.643-3.841 12.368 1.643 15.979 8.565 5.64 16.008 13.129 21.656 22.189 3.378 5.42 1.054 12.583-4.847 15.027-6.067 2.513-8.282 9.956-4.597 15.392 5.755 8.489 9.765 18.256 11.516 28.787 1.047 6.3-3.842 12.028-10.228 12.028-6.567 0-11.462 6.029-10.137 12.461 2.068 10.045 2.036 20.603-.377 31.003-1.443 6.221-8.152 9.642-14.052 7.198-6.067-2.513-12.896 1.184-14.134 7.633-1.933 10.072-6.003 19.814-12.212 28.498-3.714 5.195-11.221 5.789-15.737 1.273-4.643-4.643-12.368-3.841-15.979 1.643-5.64 8.565-13.129 16.008-22.189 21.656-5.42 3.378-12.583 1.054-15.027-4.847-2.513-6.067-9.956-8.282-15.392-4.597-8.489 5.755-18.256 9.765-28.787 11.516-6.3 1.047-12.028-3.842-12.028-10.228 0-6.567-6.029-11.462-12.461-10.137-10.045 2.068-20.603 2.036-31.003-.377-6.221-1.443-9.642-8.152-7.198-14.052 2.513-6.067-1.184-12.896-7.633-14.134-10.072-1.933-19.814-6.003-28.498-12.212-5.195-3.714-5.789-11.221-1.273-15.737 4.643-4.643 3.841-12.368-1.643-15.979-8.565-5.64-16.008-13.129-21.656-22.189-3.378-5.42-1.054-12.583 4.847-15.027 6.066-2.513 8.282-9.956 4.597-15.392z" fill="#ff8870" data-uid="o_f7bik9hgl_6"></path><path fill="#ffe45c" data-type="circle" data-cx="256" data-cy="256" data-r="105.634" d="M256,256m-105.634,0a105.634,105.634 0 1, 0 211.268,0a105.634,105.634 0 1, 0 -211.268,0" data-uid="o_f7bik9hgl_7"></path><path d="m296 321.634c-58.34 0-105.634-47.294-105.634-105.634 0-18.896 4.966-36.63 13.658-51.976-32.035 18.142-53.658 52.532-53.658 91.976 0 58.34 47.294 105.634 105.634 105.634 39.444 0 73.834-21.622 91.976-53.658-15.346 8.691-33.08 13.658-51.976 13.658z" fill="#ffda45" data-uid="o_f7bik9hgl_8"></path><path fill="#f2f6fc" transform="matrix(0.0020000000949949026, -1, 1, 0.0020000000949949026, -69.93900299072266, 446.64898681640625)" data-cx="188.845" data-cy="258.37" data-rx="19.733" data-ry="24.779" d="M169.112 258.37 C169.112 244.6849361847058 177.9467650321966 233.591 188.845 233.591 C199.7432349678034 233.591 208.578 244.6849361847058 208.578 258.37 C208.578 272.0550638152942 199.7432349678034 283.149 188.845 283.149 C177.9467650321966 283.149 169.112 272.0550638152942 169.112 258.37 Z" data-uid="o_f7bik9hgl_9"></path><path fill="#f2f6fc" transform="matrix(0.0020000000949949026, -1, 1, 0.0020000000949949026, 63.784000396728516, 581.2529907226562)" data-cx="323.155" data-cy="258.664" data-rx="19.733" data-ry="24.779" d="M303.42199999999997 258.664 C303.42199999999997 244.9789361847058 312.2567650321966 233.885 323.155 233.885 C334.05323496780335 233.885 342.888 244.9789361847058 342.888 258.664 C342.888 272.3490638152942 334.05323496780335 283.443 323.155 283.443 C312.2567650321966 283.443 303.42199999999997 272.3490638152942 303.42199999999997 258.664 Z" data-uid="o_f7bik9hgl_10"></path><path d="m203.524 251.173c-4.142 0-7.5-3.358-7.5-7.5v-10.07c0-4.142 3.358-7.5 7.5-7.5s7.5 3.358 7.5 7.5v10.07c0 4.142-3.358 7.5-7.5 7.5z" data-uid="o_f7bik9hgl_11"></path><path d="m308.331 251.173c-4.142 0-7.5-3.358-7.5-7.5v-10.07c0-4.142 3.358-7.5 7.5-7.5s7.5 3.358 7.5 7.5v10.07c0 4.142-3.358 7.5-7.5 7.5z" data-uid="o_f7bik9hgl_12"></path><path d="m280.341 242.177c-4.142 0-7.5 3.358-7.5 7.5 0 2.553-2.077 4.63-4.63 4.63s-4.63-2.077-4.63-4.63c0-4.142-3.358-7.5-7.5-7.5s-7.5 3.358-7.5 7.5c0 2.553-2.077 4.63-4.63 4.63s-4.63-2.077-4.63-4.63c0-4.142-3.358-7.5-7.5-7.5s-7.5 3.358-7.5 7.5c0 10.824 8.806 19.63 19.63 19.63 4.579 0 8.787-1.589 12.13-4.227 3.343 2.638 7.551 4.227 12.13 4.227 10.824 0 19.63-8.806 19.63-19.63 0-4.142-3.358-7.5-7.5-7.5z" data-uid="o_f7bik9hgl_13"></path><path fill="#87c7ff" data-type="circle" data-cx="431.716" data-cy="80.284" data-r="20" d="M431.716,80.284m-20,0a20,20 0 1, 0 40,0a20,20 0 1, 0 -40,0" data-uid="o_f7bik9hgl_14"></path><path fill="#cdc3b4" data-type="circle" data-cx="256" data-cy="456" data-r="20" d="M256,456m-20,0a20,20 0 1, 0 40,0a20,20 0 1, 0 -40,0" data-uid="o_f7bik9hgl_15"></path><path d="m305.623 457.296c.614 0 1.238-.076 1.861-.235 42.05-10.737 79.143-34.056 107.268-67.436 28.451-33.768 45.128-74.857 48.228-118.828.292-4.132-2.822-7.717-6.954-8.009-4.125-.284-7.717 2.823-8.009 6.954-5.838 82.81-63.805 152.246-144.244 172.784-4.013 1.025-6.436 5.109-5.412 9.123.867 3.392 3.916 5.647 7.262 5.647z" data-uid="o_f7bik9hgl_16"></path><path d="m256 48.5c-114.416 0-207.5 93.084-207.5 207.5 0 94.739 63.998 177.378 155.63 200.962.627.162 1.256.239 1.875.239 3.34 0 6.387-2.248 7.258-5.632 1.033-4.012-1.382-8.101-5.394-9.133-85.002-21.878-144.369-98.543-144.369-186.436 0-106.145 86.355-192.5 192.5-192.5 100.742 0 185.094 78.634 192.036 179.017.286 4.132 3.859 7.25 8 6.964 4.132-.286 7.25-3.867 6.964-8-3.618-52.322-26.756-100.95-65.151-136.927-38.578-36.147-88.955-56.054-141.849-56.054z" data-uid="o_f7bik9hgl_17"></path><path d="m15 256c0-132.888 108.112-241 241-241 47.489 0 93.429 13.795 132.854 39.893 3.455 2.286 8.108 1.34 10.394-2.114 2.287-3.454 1.34-8.107-2.114-10.394-41.888-27.728-90.691-42.385-141.134-42.385-68.38 0-132.667 26.629-181.019 74.98-48.353 48.353-74.981 112.64-74.981 181.02 0 61.955 22.422 121.742 63.135 168.347 1.483 1.698 3.562 2.566 5.651 2.566 1.75 0 3.509-.609 4.931-1.852 3.12-2.725 3.439-7.463.714-10.583-38.325-43.871-59.431-100.153-59.431-158.478z" data-uid="o_f7bik9hgl_18"></path><path d="m469.612 114.862c-2.287-3.454-6.94-4.399-10.394-2.114-3.454 2.287-4.4 6.94-2.114 10.394 26.101 39.425 39.896 85.367 39.896 132.858 0 132.888-108.112 241-241 241-60.075 0-117.622-22.234-162.042-62.606-3.066-2.786-7.809-2.559-10.595.506s-2.56 7.809.506 10.595c47.187 42.886 108.317 66.505 172.131 66.505 68.38 0 132.667-26.629 181.02-74.98 48.351-48.353 74.98-112.64 74.98-181.02 0-50.445-14.657-99.25-42.388-141.138z" data-uid="o_f7bik9hgl_19"></path><path d="m294.779 410.151c9.848-6.139 18.085-14.178 24.485-23.896.772-1.172 1.943-1.299 2.411-1.299.532 0 1.312.145 2.001.834 3.377 3.377 7.864 5.237 12.636 5.236 5.749 0 11.171-2.786 14.506-7.45 6.749-9.439 11.283-20.02 13.477-31.447.295-1.537 1.636-2.34 2.809-2.34.366 0 .732.075 1.09.223 2.187.906 4.487 1.365 6.837 1.365 8.355 0 15.506-5.674 17.391-13.797 2.623-11.304 2.764-22.813.417-34.21-.241-1.169.264-2.006.585-2.401.319-.391 1.029-1.047 2.207-1.047 5.263 0 10.234-2.304 13.638-6.32 3.394-4.005 4.848-9.267 3.989-14.438-1.903-11.448-6.178-22.135-12.707-31.765-.67-.988-.525-1.955-.378-2.443.145-.483.55-1.361 1.638-1.812 4.862-2.014 8.574-6.045 10.181-11.059 1.603-4.999.932-10.417-1.84-14.864-6.139-9.848-14.178-18.085-23.896-24.485-.997-.656-1.232-1.604-1.284-2.111-.051-.502-.013-1.468.82-2.301 3.722-3.722 5.608-8.865 5.175-14.113-.432-5.231-3.125-9.98-7.389-13.029-9.439-6.749-20.02-11.283-31.447-13.477-1.172-.225-1.753-1.011-1.995-1.46-.239-.444-.573-1.351-.123-2.438 2.014-4.863 1.788-10.337-.621-15.02-2.401-4.667-6.706-8.024-11.812-9.208-11.186-2.596-22.94-2.737-34.21-.417-.204.042-.408.063-.606.063-1.367 0-2.842-1.091-2.842-2.855 0-9.854-7.994-17.87-17.821-17.87-.978 0-1.966.082-2.938.243-11.448 1.903-22.135 6.178-31.765 12.707-.492.333-1.031.502-1.604.502-.886 0-2.112-.461-2.651-1.762-2.777-6.705-9.263-11.038-16.523-11.038-3.319 0-6.57.933-9.4 2.697-9.848 6.139-18.085 14.178-24.485 23.896-.772 1.172-1.943 1.299-2.411 1.299-.532 0-1.312-.145-2.001-.834-3.376-3.377-7.864-5.236-12.636-5.236-5.749 0-11.171 2.785-14.506 7.45-6.749 9.439-11.283 20.02-13.477 31.447-.295 1.537-1.636 2.34-2.809 2.34-.366 0-.732-.075-1.09-.223-2.187-.906-4.487-1.365-6.837-1.365-8.355 0-15.506 5.673-17.391 13.797-2.623 11.304-2.764 22.813-.417 34.21.241 1.169-.264 2.006-.585 2.401-.319.391-1.029 1.047-2.207 1.047-5.263 0-10.234 2.304-13.638 6.32-3.394 4.005-4.848 9.267-3.989 14.438 1.903 11.448 6.178 22.135 12.707 31.765.67.988.525 1.955.378 2.443-.145.483-.55 1.361-1.638 1.812-4.862 2.014-8.574 6.045-10.181 11.059-1.603 4.999-.932 10.417 1.84 14.864 6.139 9.848 14.178 18.085 23.896 24.485.997.656 1.232 1.604 1.284 2.111.051.502.013 1.468-.82 2.301-3.722 3.722-5.608 8.865-5.175 14.113.432 5.231 3.125 9.98 7.389 13.029 9.439 6.749 20.02 11.283 31.447 13.477 1.172.225 1.753 1.011 1.995 1.46.239.444.573 1.351.123 2.438-2.014 4.863-1.788 10.337.621 15.02 2.401 4.667 6.706 8.024 11.812 9.208 11.187 2.596 22.941 2.737 34.21.417.204-.042.408-.063.606-.063 1.367 0 2.842 1.091 2.842 2.855 0 4.8 1.875 9.305 5.28 12.685 3.37 3.344 7.824 5.186 12.542 5.185.978 0 1.966-.082 2.937-.243 11.448-1.903 22.135-6.178 31.765-12.707.492-.333 1.031-.502 1.604-.502.886 0 2.112.461 2.651 1.762 2.777 6.705 9.264 11.038 16.523 11.038 3.32 0 6.57-.933 9.4-2.697zm-12.065-14.081c-2.773-6.695-9.253-11.022-16.509-11.022-3.578 0-7.042 1.067-10.021 3.086-7.827 5.306-16.51 8.78-25.808 10.326-.161.026-.322.04-.479.04-.987 0-1.66-.521-1.973-.832-.386-.383-.847-1.048-.847-2.039 0-9.845-8.004-17.854-17.842-17.854-1.212 0-2.434.125-3.631.371-9.16 1.886-18.706 1.772-27.796-.337-1.1-.255-1.639-1.023-1.863-1.458-.228-.443-.544-1.347-.101-2.418 2.062-4.978 1.779-10.552-.776-15.294-2.56-4.75-7.069-8.058-12.372-9.076-9.287-1.783-17.883-5.467-25.551-10.948-.918-.657-1.123-1.573-1.164-2.061-.041-.497.013-1.453.833-2.272 3.81-3.811 5.681-9.069 5.135-14.428-.547-5.368-3.447-10.149-7.957-13.119-7.897-5.201-14.43-11.894-19.416-19.892-.597-.958-.436-1.883-.287-2.349.152-.475.568-1.338 1.638-1.781 4.978-2.062 8.72-6.203 10.267-11.363 1.549-5.168.699-10.696-2.331-15.166-5.306-7.827-8.78-16.51-10.326-25.808-.185-1.114.318-1.907.635-2.28.322-.38 1.036-1.019 2.195-1.019 5.388 0 10.43-2.395 13.833-6.57 3.409-4.182 4.739-9.614 3.65-14.903-1.907-9.263-1.794-18.614.337-27.796.349-1.502 1.685-2.187 2.779-2.187.371 0 .74.075 1.097.223 2.187.906 4.484 1.365 6.83 1.365 8.549 0 15.926-6.104 17.54-14.513 1.783-9.287 5.467-17.883 10.948-25.551.757-1.059 1.864-1.173 2.304-1.173.542 0 1.333.146 2.029.843 3.372 3.371 7.849 5.228 12.608 5.228 6.035 0 11.62-3.009 14.938-8.049 5.201-7.897 11.894-14.43 19.892-19.416.454-.283.947-.426 1.465-.426.89 0 2.122.466 2.665 1.778 2.773 6.695 9.253 11.022 16.509 11.022 3.578 0 7.042-1.067 10.021-3.086 7.827-5.306 16.51-8.78 25.808-10.326.161-.026.321-.04.478-.04 1.362 0 2.821 1.153 2.821 2.87 0 9.845 8.004 17.855 17.842 17.855 1.212 0 2.434-.125 3.631-.372 9.16-1.886 18.706-1.772 27.795.337 1.1.255 1.639 1.023 1.863 1.458.228.443.544 1.347.101 2.418-2.062 4.978-1.779 10.552.776 15.294 2.56 4.75 7.069 8.058 12.372 9.076 9.287 1.783 17.883 5.467 25.551 10.948.918.657 1.123 1.573 1.164 2.061.041.497-.013 1.453-.833 2.272-3.81 3.811-5.681 9.069-5.135 14.428.547 5.368 3.447 10.149 7.957 13.119 7.897 5.201 14.43 11.894 19.416 19.892.597.958.436 1.883.287 2.349-.152.475-.568 1.338-1.638 1.781-4.978 2.062-8.72 6.203-10.267 11.363-1.549 5.168-.699 10.696 2.331 15.166 5.306 7.827 8.78 16.51 10.326 25.808.185 1.114-.318 1.907-.635 2.28-.322.38-1.036 1.019-2.195 1.019-5.388 0-10.43 2.395-13.833 6.57-3.409 4.182-4.739 9.614-3.65 14.903 1.907 9.263 1.794 18.614-.337 27.796-.349 1.502-1.685 2.187-2.779 2.187-.37 0-.739-.075-1.097-.223-2.187-.906-4.484-1.365-6.83-1.365-8.549 0-15.926 6.104-17.54 14.513-1.783 9.287-5.467 17.883-10.948 25.551-.757 1.059-1.864 1.173-2.305 1.173-.541 0-1.332-.146-2.028-.843-3.372-3.371-7.849-5.228-12.608-5.228-6.035 0-11.62 3.009-14.938 8.049-5.201 7.897-11.894 14.43-19.892 19.416-.454.283-.947.426-1.465.426-.889.001-2.121-.465-2.664-1.777z" data-uid="o_f7bik9hgl_20"></path><path d="m369.134 256c0-62.382-50.751-113.134-113.134-113.134s-113.134 50.752-113.134 113.134 50.752 113.134 113.134 113.134 113.134-50.752 113.134-113.134zm-113.134 98.134c-54.111 0-98.134-44.022-98.134-98.134s44.022-98.134 98.134-98.134 98.134 44.022 98.134 98.134-44.023 98.134-98.134 98.134z" data-uid="o_f7bik9hgl_21"></path><path d="m431.716 107.784c7.346 0 14.252-2.86 19.446-8.055 10.722-10.722 10.722-28.169 0-38.891-5.194-5.194-12.1-8.054-19.446-8.054-7.345 0-14.251 2.86-19.445 8.054s-8.055 12.1-8.055 19.446c0 7.345 2.86 14.251 8.055 19.445 5.193 5.195 12.1 8.055 19.445 8.055zm-8.839-36.339c2.361-2.361 5.5-3.661 8.839-3.661s6.479 1.3 8.839 3.661c4.874 4.874 4.874 12.804 0 17.678-2.361 2.361-5.5 3.661-8.839 3.661s-6.478-1.3-8.839-3.661c-4.874-4.874-4.874-12.804 0-17.678z" data-uid="o_f7bik9hgl_22"></path><path d="m228.5 456c0 15.164 12.336 27.5 27.5 27.5s27.5-12.336 27.5-27.5-12.336-27.5-27.5-27.5-27.5 12.336-27.5 27.5zm40 0c0 6.893-5.607 12.5-12.5 12.5s-12.5-5.607-12.5-12.5 5.607-12.5 12.5-12.5 12.5 5.607 12.5 12.5z" data-uid="o_f7bik9hgl_23"></path></g><path text-anchor="middle" offset="0.5" fill="#000000" space="preserve" font-scale="contain" font-size="48" font-family="Atomic Age" text="hy" font-style="normal" font-weight="400" data-fl-textpath="" transform="matrix(1.9126502110809562, 0, 0, 1.9126502110809562, 389.22401677860876, 238.8161910525499)" data-uid="o_f7bik9hgl_24" d="M-25.383 0L-25.383-37.27L-19.783-37.27L-19.783-21.87Q-19.123-23.13 -18.153-23.84Q-17.183-24.54 -16.033-24.54L-16.033-24.54L-8.973-24.54Q-8.063-24.54 -7.253-24.07Q-6.443-23.6 -5.833-22.79Q-5.223-21.98 -4.873-20.91Q-4.523-19.83 -4.523-18.59L-4.523-18.59L-4.523-4.01L 0.497-4.01Q 0.397-3.19  0.037-2.45Q-0.333-1.71 -0.863-1.17Q-1.403-0.63 -2.113-0.32Q-2.813 0 -3.563 0L-3.563 0L-5.653 0Q-6.563 0 -7.383-0.47Q-8.203-0.94 -8.813-1.75Q-9.423-2.55 -9.773-3.63Q-10.123-4.71 -10.123-5.95L-10.123-5.95L-10.123-20.53L-19.783-20.53L-19.783 0L-25.383 0ZM 4.5-5.95L 4.5-24.54L 10.1-24.54L 10.1-4.01L 19.76-4.01L 19.76-24.54L 25.36-24.54L 25.36-4.01L 30.09-4.01Q 30-3.19  29.64-2.45Q 29.27-1.71  28.72-1.17Q 28.17-0.63  27.47-0.32Q 26.77 0  25.99 0L 25.99 0L 25.36 0L 25.36 6.68Q 25.36 7.92  25.01 9.01Q 24.66 10.1  24.05 10.91Q 23.44 11.72  22.63 12.2Q 21.82 12.68  20.91 12.68L 20.91 12.68L 9.56 12.68L 9.56 8.63L 19.76 8.63L 19.76-2.51Q 19.13-1.34  18.13-0.67Q 17.13 0  16.01 0L 16.01 0L 8.95 0Q 8.04 0  7.22-0.47Q 6.4-0.94  5.8-1.75Q 5.2-2.55  4.85-3.63Q 4.5-4.71  4.5-5.95L 4.5-5.95Z"></path></g></svg>